<?xml version="1.0" standalone="no"?>
<!DOCTYPE svg PUBLIC "-//W3C//DTD SVG 20010904//EN"
 "http://www.w3.org/TR/2001/REC-SVG-20010904/DTD/svg10.dtd">
<svg version="1.0" xmlns="http://www.w3.org/2000/svg"
 width="400.000000pt" height="400.000000pt" viewBox="0 0 400.000000 400.000000"
 preserveAspectRatio="xMidYMid meet">
<metadata>
Created by potrace 1.11, written by Peter Selinger 2001-2013
</metadata>
<g transform="translate(0.000000,400.000000) scale(0.100000,-0.100000)"
fill="#000000" stroke="none">
<path d="M1001 3108 c-27 -73 -156 -413 -294 -773 -36 -93 -95 -249 -132 -345
-36 -96 -84 -220 -105 -275 -34 -90 -95 -250 -212 -555 -22 -58 -44 -115 -49
-128 -5 -13 -7 -28 -4 -33 4 -5 64 -9 134 -9 l129 0 10 28 c6 15 27 72 47 127
20 55 45 123 55 150 10 28 42 113 70 190 29 77 67 181 85 230 18 50 57 153 85
230 28 77 67 181 85 230 18 50 53 143 77 208 23 64 48 117 54 117 7 0 35 -64
64 -142 28 -79 65 -179 82 -223 42 -111 61 -164 103 -280 48 -131 75 -205 85
-230 5 -11 25 -65 45 -120 41 -113 59 -163 105 -285 18 -47 41 -110 52 -140
33 -91 20 -85 167 -88 101 -2 131 0 131 10 0 7 -13 47 -29 88 -16 41 -55 143
-86 225 -31 83 -61 159 -65 170 -5 11 -39 99 -75 195 -36 96 -84 220 -105 275
-21 55 -68 179 -105 275 -36 96 -79 209 -95 250 -16 41 -59 154 -95 250 -37
96 -70 184 -75 195 -5 11 -28 71 -51 133 -24 61 -48 112 -54 112 -5 0 -21 -28
-34 -62z"/>
<path d="M3093 2824 c-21 -18 -115 -78 -208 -134 -219 -133 -276 -172 -347
-237 -32 -29 -62 -53 -67 -53 -12 0 -213 -200 -272 -270 -109 -131 -207 -312
-209 -386 -2 -102 30 -263 71 -349 85 -180 261 -272 471 -245 40 5 100 10 133
10 34 0 65 4 70 9 6 5 66 16 135 26 69 9 175 32 235 51 61 18 142 42 180 52
359 98 468 149 575 266 65 72 73 89 65 156 -7 56 -10 62 -49 90 -22 16 -66 54
-96 84 -34 35 -90 74 -150 107 -52 28 -146 80 -208 115 -62 36 -118 61 -125
58 -60 -35 -179 -120 -187 -133 -5 -9 -10 -30 -12 -47 -2 -24 0 -29 17 -26 18
2 20 -3 20 -57 0 -55 3 -63 34 -95 27 -28 32 -39 23 -48 -18 -18 -15 -26 13
-41 l25 -13 -32 -11 c-64 -23 -328 -83 -405 -93 -49 -6 -88 -17 -105 -30 -15
-11 -34 -17 -42 -14 -8 3 -75 7 -148 7 -129 2 -133 3 -136 24 -9 64 254 359
468 526 112 88 210 146 422 252 86 43 166 86 177 95 24 17 26 39 13 144 -9 79
-14 85 -129 148 -39 21 -78 49 -87 62 -11 17 -27 25 -55 28 -34 3 -47 -2 -78
-28z"/>
</g>
</svg>
